<svg xmlns="http://www.w3.org/2000/svg" width="497" height="333" xml:space="preserve"><path class="st0" d="M67 108.7c0-.2-.1-.2 0 0z"/><path class="st0" d="M64.8 197.1s0 .1 0 0c.2.2.4.2.5.3l-.5-.3z"/><path class="st0" d="M62.2 211.2c.1.1.2.1 0 0z"/><path class="st0" d="M65.2 164.2c0-.1 0-.2-.1-.2.1.1.1.1.1.2z"/><path class="st0" d="M65.6 82.6s0 .1 0 0c.1 0 .1 0 .1-.1l-.1.1z"/><path class="st0" d="M66 82.9c-.1.3-.3-.1-.3-.2-.3.4-.3.7-.1 1 .2 0 .1-.6.4-.8z"/><path class="st0" d="m62.5 35.5.1.1s0-.1-.1-.1z"/><path class="st0" d="M50 164.8c0-.1 0-.1-.1-.2 0 .1.1.2.1.2z"/><path class="st0" d="m62.7 43 .5.1c-.2-.1-.3-.1-.5-.1z"/><path class="st0" d="m65.3 197.4.2.1c-.1 0-.2 0-.2-.1z"/><path class="st0" d="M60.4 224.2H60h.4z"/><path class="st0" d="M41.4 288h.2l-.3-.3c0 .1 0 .2.1.3z"/><path class="st0" d="M55.9 241.8c.1 0 .1.1.2.1.2-.3.4-1.1.5-2.1l-.6-.1-.1 2.1z"/><path class="stroke-1" d="m38.9 258.8 1.5-1.6c-.5 6-2.2 8.6-2.2 13.9l-.2-.3c-.2.3.3.8.3 2-.1 1.3-.7 3.4-3.2 7H35c0 .3.2.3-.2.8l1-1.2c.1.9.5 1.8.3 2.9-.2.2-.4.2-.6.2l-.4 2.8-1 .7c.2.9 1.9.9.5 3 1.3-.6.4 1.3 1 1.1-.2.1-.4.3-.7.4-.2 1.4-.4 4 0 4.7 0 0 3.5-4.7 5-5.8-.7 1.8 0 .5.5.2l-.2-.2c.5-1.1 1.2-.9 1.6-1.4h-.2l.1.1c-.1 0-.2 0-.3-.1-.2 0-.3-.1-.1-.4l.1.1c0-.5.3-1.3.4-1.6l.6.1c-.9-1.1 3-5.3 3.3-6.4 1-1 .4-2.6 1.1-4 .7-2.2 1.1-1 1.9-2 .6-1.4-.7.2-.7-.4l1.1-1.6c-.1 1 .3.5.6.4.4-1.5 1.9-3.6.8-4.3.9-1.9 1.4-1.8 1.6-2.7-.3.3-.6.8-.8.8.7-.7-.1-.4-.2-.1-.3-1.3 3.3-6 2.1-6.5h.2c-.9-.5-1.9-.2-2.3-1.1l.5-.5-.3-.9c.4-.5.6-.2.7-.2-.2-1.5.7-3.4 1.1-5.1l-3 1.4c.9-1.3 2.5-3.7 1.7-4.2l1-.7c2.1-2.6-.4-2.1.2-3.2l1.2-1.3-.2 1.4c.7-1.4 1.1-1.9 1.9-3-.1.1-.1.1-.2.1v-.2c-.5-.2-.7-1.1-.5-2.1.3-1.4-.2-2.7 1.2-4.8l-.9-.7.8-1.7.8.1c-.3 1.7-.5 5-.7 7.2l.4.1c.2-1.3.1-2.8.3-3.7.2-.4 1.2-1.4 1.6-.5l-.7-.9c.3-2.2.4-3.3.7-4.4.3-1.1.6-2.2 1.3-4.5l-.4.3c-.1-.9-.3-1.9.4-2 .4-2.7 1.3-5.5 2.5-7.2l-.9-.5c.1-.6 1.6-1.3.4-1.7l-.3-1.3c.2-.8-.3-1.3.3-2.2 0-.1.1-.1.1-.2H62c.6-1.7-.8-.1-.1-2.1.7-.6-1.1-.8-.8-1.8l1.5-.9c1-1.7-.4-2.2-.2-4.8.6-1.2 1.8-1.7 2.7-.8-1.1-1.3-.8-.6-1.2-2.2.5-.2.6 0 1 .4.7-1.3-.4-.9-.3-1.9-.9-.4-2.4-.9-2.5-1.2l-.3.4c-.4-1.1-.6-2.3 0-3.5l.5.1-.1-1.4h.6v-1.9l-.2.2c0-.5-.1-1.9.3-2.8l.3.1c1.3-2.3.1-4.4.1-7.1l.7.4c.8-.9-1.1-.3-.6-1.4h.9c-1.1-1.1.3-1.3.8-1.9l-1.1.2.3-1.3c.5-1.4 1.5-.8 2-.5l-.8-1 1-.1c-1.1-.8.2-.7-.3-2 .4-.1.6.2.8-.2l-1.3-2.1.5 1.3-1.4-.2c-1-1.3.3-1.7-.1-2.7l.4.7c-.3-1.5.4-1.6.7-2.4-.3.2-.7.6-.9 0-.1-.4.5-.2.7-.6-1-.2-1.4-1.3-.9-2.2.1 0 .3 0 .4.1-.1-.3-.4-.4-.1-.8l1.1.3-1-.9c.3-.5-.4-1.4.3-1.3l.2.3s.1-1 .2-2.1c.1-1 .2-2.1.2-2.1h.9c-1.2-.5.5-2.3-.9-2.2.8-.8-.5-3.1 1.2-2.6.2-2.8-1.3-4.3-.4-7.6 1.5-1.2 1.1-4.5 1.3-6.6-.5-4.2-1-7-1.4-11.3 2-2.6-.5-6.5.6-9.3l-.8-.8c1.2-1.8-.3-4.7.9-7.3-.3-.6-.5-1-.5-1.1 0 .1-.2.3-.7.4.3-.7-.1-2.2.9-2.1l.1.2c1 .1-.5-2.3.4-3.1l-1.1.5.2-1.4.2.4c-2.4-6.1.9-8.9-1.3-14.6 1.2.7-.6-1.1.6-1.2 1.6-1.5-.4-2.7-.8-3.8-.1 0-.1 0-.2-.1l.1-2.1c1.6 1.2-1.4-1.5 0-.4 1-5.4-.4-12.4-.1-18.7l-.4.3c0-1.6-.6-3.5 0-4.8.6-1.2-1.2-2.6-1.3-3-.8-1.3.6-2.6.5-2-.3-1.4-1.8-2.6-1.3-4.6 1.3-.7-1.6-5.2-.1-5.4h-.1c.9-2.6-1.1-4.8-.3-7.6 0 0 .1 0 .2.1l-5.1-5.1-5 2-3.8 5s.4 3.2.9 6.3c.4 3.2.8 6.3.8 6.3s-.3 2.6-.5 5.1c-.3 2.6-.6 5.1-.6 5.1s.1 1.5.3 3.9c.2 2.3.4 5.4.5 8.5.2 3.1.3 6.2.4 8.5.1 2.3.2 3.9.2 3.9l1.2 1.7c-2 4.9.5 11.1-.9 16.4l1 .1c.1 1.5-.6 1.4-.7 1.7.1 6.9.6 13.8.6 20.6.1 6.8 0 13.4-.9 19.6-.7 1.2-.4 4.8-1.2 5.7 1 4.1 1 8.3.6 12.3l-.1-.2.1 1.9c-.1.1-.2.1-.3 0 .8 2.2-.3 5.5-.8 8.1l-.1-.2c-.3 3.8-.3 7.5-.6 11.2-.2 3.7-.3 7.4-.5 11-.2 3.7-.3 7.3-.8 11-.4 3.7-1 7.3-1.8 11-1.2 3.4-1.4 7.2-1.8 11.1-.4 3.9-.7 7.9-2 11.8-.6.7-1.3 5-1.8 9.4-.4 4.3-.9 8.7-.8 9.4z"/><path class="st0" d="M35.4 282.4c-.4-.1-.2 0 0 0z"/><path class="st0" d="M53.2 251.4v.1l.7-.3z"/><path class="st0" d="M49.6 273c.3-.9.2-1 0-.9 0 .4-.1.7 0 .9z"/><path class="st0" d="M34.5 290.3c-.1.5.1.4.5.1.1-.5.1-.9.1-.9-.2.3-.5.5-.6.8z"/><path class="st0" d="m40.5 289.6.3.2c0-.3-.2-.3-.3-.2z"/><path class="st0" d="M127.4 113.7c.2-.1.2-.2 0 0z"/><path class="st0" d="M99.2 177.4c.3 0 .5-.1.6-.1l-.6.1z"/><path class="st0" d="M111.1 192.6v.1c.2-.1.3-.1 0-.1z"/><path class="st0" d="M76.1 157.7z"/><path class="st0" d="M153.1 91.6c0 .1.1 0 .2 0h-.2z"/><path class="st0" d="M153 92.1c-.4.1-.1-.3 0-.4-.5.1-.9.3-1.2.7.3.2.9-.4 1.2-.3z"/><path class="st0" d="m201.1 53-.1.2s0-.1.1-.2z"/><path class="st0" d="M56.4 155.8c.1-.1.2-.3.3-.4-.2.3-.3.4-.3.4z"/><path class="st0" d="m193.2 58.7.2.5c-.1-.3-.1-.4-.2-.5z"/><path class="st0" d="M99.8 177.3h.2c-.1-.1-.1-.1-.2 0z"/><path class="st0" d="m121.4 207.3-.3.3.3-.3z"/><path class="st0" d="M168.2 278.6c0-.1.1-.1.1-.2l-.5.1c.2.1.3.1.4.1z"/><path class="st0" d="M131.4 229h.2c-.1-.4-.6-1.3-1.3-2.5l-.6.2 1.7 2.3z"/><path class="stroke-2" d="m134.5 258.5-.4-1.4c-.2-.7-.3-1.4-.3-1.4 1.5 1.7 2.8 3.2 4 4.6l1.8 2.1c.6.6 1.2 1.2 1.7 1.8l.1.1h-.1c1.8 2 3.6 3.8 6.2 5.7l-.5-.1c.3.5 1 .3 2.4 1.3s3.4 3.1 6.8 8.2l-.1.1c.3.2.5.1.9.8l-1.1-1.9c1.1.5 2.3.8 3.6 1.7.2.3.1.6 0 .8l1.6 1.2c.8.6 1.7 1.1 1.7 1.1s.1.3.3.7c.1.3.3.7.3.7 1.3.4 1.7-1.3 4 1.4-.4-1.6 1.8.3 1.7-.4.1.2.3.6.4.9.9.5 2.3 1.1 3.5 1.6 1.4.5 2.6.8 3.1.7 0 0-.4-.4-1-.9-.6-.6-1.5-1.3-2.2-2.2-1.6-1.7-3-3.8-3.5-4.8 2 1.7.6.3.4-.3l-.3.1c-1.1-1.1-.7-1.7-1.2-2.3 0 0-.1.1-.1.2h.1c0 .1-.1.2-.2.2-.1.1-.2.2-.5-.1h.1c-.6-.3-1.4-1.1-1.8-1.4l.4-.5c-.8.1-2.1-1.4-3.2-3.1-1.1-1.7-2.2-3.5-2.7-4.1-.6-1.6-2.7-2.1-3.8-3.7-2.1-2.2-.5-1.7-1.2-3.1-1.1-1.6-.2.8-.8.3l-1-2.2c1 .9.7.1.7-.2-1.3-1.4-2.7-4.4-4-4-.1-.2-.3-.5-.4-.6-.1-.1-.1-.2-.2-.3l-.1-.1v-.1l.1.1c-.7-1.3-.6-1.7-1.2-2.3.1.4.4 1 .3 1.2-.3-1.1-.4-.2-.2.1-.4-.2-.8-.7-1.2-1.4-.2-.4-.4-.7-.6-1.1-.2-.4-.4-.9-.6-1.3-.8-1.7-1.6-3.3-2.2-3l.2-.1c-1 .3-1.4 1.4-2.5.8l-.1-.9-1-.7c-.2-.8.2-.7.3-.7-1.4-1.2-2.5-3.6-3.6-5.5l-.9 3.5c-.6-1.9-1.4-5.5-2.3-5.3l.1-1.4c-.6-4.1-2.1-1.8-2.4-3.4l-.2-2.1 1 1.6c-.6-1.9-.7-2.7-.9-4.3v.2l-.2-.2c-.5.1-1.3-.6-2-1.8-.4-.8-1-1.5-1.5-2.3-.1-.2-.3-.4-.4-.7-.1-.1-.1-.2-.2-.4l-.1-.2v-.1c-.1-.2.1.3.1.2v-.1c-.2-.6-.4-1.3-.5-2.1l-1.3-.2-.6-2.4.7-.4c.5 1 1.4 2.5 2.3 4 .8 1.3 1.7 2.7 2.4 3.8l.3-.1c-.4-.7-1-1.5-1.4-2.1-.2-.3-.5-.7-.7-.9 0-.1-.1-.2-.1-.2l-.1-.1c.1.1-.2-.3.2.3v-.1c-.1-.2-.2-.3-.2-.4-.1-.6-.1-2.3.9-1.6l-1.2-.6c-1.4-2.6-2.2-4-2.8-5.4-.7-1.4-1.3-2.8-2.6-5.7l-.1.7c-.8-.9-1.7-1.9-1.3-2.5-1-1.6-1.9-3.2-2.7-4.8-.8-1.6-1.3-3.1-1.7-4.4l-1.1.1c-.4-.7 0-2.5-1.3-2l-1.4-1.1c-.6-.9-1.4-1.1-1.8-2.4 0-.1 0-.2-.1-.2l-.1.1c-1.2-2.1-.6.6-2-1.9-.1-1.1-1.6 0-2.3-1.2l.2-1.9c-1-2.4-2.4-1.8-4.7-4.4-.8-1.6-.5-3 1-2.9-2-.3-1.1 0-3-1 .1-.6.4-.5 1-.5-.9-1.7-1.1-.5-2.1-1.5-1 .4-2.4 1.1-2.7.9l.2.6c-1.4-.7-2.7-1.6-3.6-3.1l.4-.3L92 175l.3-.5-1-.8-1-.8.1.4c-.5-.3-2.1-1.5-2.7-2.5l.3-.2c-.8-1.5-2-2.4-3.3-3.2-1.3-.8-2.8-1.6-4.3-2.7l.8-.2c-.6-1.3-1 .6-1.9-.6l.5-.7c-.9 0-1.2-.3-1.3-.7 0-.1-.1-.2-.1-.3v-.3c0-.2.1-.4.1-.5 0 0-.1.2-.3.5-.1.2-.3.5-.3.5l-.5-.7c-.4-.8.8-1.2 1.3-1.6 0 0-.3.1-.5.1-.3.1-.6.1-.6.1s.2-.2.4-.3c.2-.1.4-.3.4-.3-.6.3-.6.2-.5.2.1-.1.2-.2-.2-.1.4-.2.7-.2.8-.3 0 0-.4.1-.9.2s-1.1.1-1.1.1h1l-1.8.5c-.8 0-1-.1-1-.2s.2-.2-.1-.3h-.1.8c-.1 0-.2-.1-.3-.1-.2 0 0-.1.1-.1s.2-.1.4-.1c.3-.1.5-.1.9-.2-.4 0-1.1.1-1.2 0 0-.1.8 0 1.1-.1-.6-.1-1-.2-1.2-.3-.1-.2 0-.3.4-.4.1 0 .3.1.4.1-.1-.1-.3-.2 0-.3 0 0 .3.1.5.2.3.1.5.2.5.2l-.9-.6c.4 0 0-.6.6-.2l.1.2.6-.4c1-.9 2-1.7 2-1.7l.6.6c-.4-1.2 2.5-1.7 1.3-2.6 1.3-.1 2.6-3.2 3.2-1.5 2.7-2.3 3.1-4.8 6.9-7 2.1 0 4.9-3.1 7.2-4.8 3.8-4 6-6.7 10-10.7 3.9-.6 6-5.9 9.5-7.4l.3-1.2c2.7-.6 4.5-4.1 7.9-5.3.4-.8.7-1.2.8-1.3-.1.1-.4.1-.8-.2 1-.3 2.2-1.9 2.7-1.1l-.1.2c.5.9 2-2.2 3.4-2.2l-1.1-.5 1.5-1-.3.5c4.7-6.9 9.6-6.5 14.1-12.8 0 1.5.8-1.4 1.6-.5 2.5.1 2.5-2.5 3.4-3.7 0 0-.1-.1-.1-.2l2.2-1.6c-.3 2.3.7-2.3.4-.3 6.3-3.4 12.7-10.1 19.5-14.7l-.5-.1c1.7-1.2 3.4-3.2 5-3.6 1.6-.4 2.1-2.9 2.5-3.4.9-1.6 3-1.5 2.4-1.1 1.3-1.3 1.8-3.5 4.2-4.6 1.5.5 4.7-5.3 5.7-4.2l-.1-.1c3.2-1.1 4.6-4.5 8-5.8v.3l2.9-8.1-4.7-2.8-7.5.5-12.8 11-11.6 7s-6.4 5.2-12.7 10.4c-6.3 5.2-12.7 10.4-12.7 10.4l-1.1 2.4c-6.3 2.5-11.3 9.5-17.6 12.7l.5.9c-1.5 1.3-1.8.7-2.3.9-14 11.7-27.5 24.8-40.7 34.8-1.6.6-5 4.1-6.4 4.4-1.6 2.3-3.4 4.4-5.4 6.4l-1.5 1.5-1.1 1-1.3 1.3c-1.8 1.7-3.6 3.5-5.3 5.2l.1-.3-3 3.3c-.2.1-.4.1-.4 0-.5.7-1.1 1.5-1.9 2.4-.4.4-.8.8-1.2 1.3-.4.4-1 .9-1.3 1.3 3.4 2.3 6.9 5.2 10.1 7.6l-.4-.2 1.5 1 1.3 1c.8.6 1.7 1.3 2.5 1.9l1.3.9.6.4.3.3 1.4 1.1c1.9 1.4 3.7 3 5.5 4.4 1.8 1.5 3.6 3 5.4 4.6 1.7 1.6 3.5 3.1 5.2 4.7 6.7 6.4 13 13.4 17.9 21.6.9 2.1 2.1 4 3.3 6 1.2 2 2.5 4 3.8 6.1 1.2 2.1 2.5 4.2 3.6 6.4.7 1.4 1.4 2.7 2.2 4.1.6 1.2 1.2 2.5 1.8 3.7.1 1.1 3.2 6.4 6.7 11.4 1.7 2.5 3.6 5 5.2 6.9 2 .8 3.2 2.2 3.7 2.6z"/><path class="st0" d="M159.5 280.8c-.3.3-.1.2 0 0z"/><path class="st0" d="m137.1 240.3.1.1.2-.7z"/><path class="st0" d="M155.2 261.2c-.8-1-.9-.9-.9-.7.3.3.6.6.9.7z"/><path class="st0" d="M169.2 286.8c.6.4.5.1.3-.4-.7-.4-1.1-.6-1.1-.6.3.2.5.6.8 1z"/><path class="st0" d="m169.9 280.4.4-.2c-.4-.1-.5 0-.4.2z"/><path class="st0" d="M236.2 265.1c-.1 0-.1 0-.1.1 0-.1.1-.1.1-.1z"/><path class="st0" d="m46.6 255.4.2-.4c0-.4 0-.7.1-1.1l-.3 1.5z"/><path class="st0" d="M99.6 211.4c.1-.1.2-.1.4-.2-.1-.1-.1-.2-.4.2z"/><path class="st0" d="M176 274c.5-.4.7-.6.8-.8-.3.2-.5.4-.8.8z"/><path class="st0" d="M159.1 225.2v.3-.7.4z"/><path class="st0" d="M159.6 226.4c0 1.4-.3-.3-.4-.9-.1 1.5.2 3 .5 4.5.3-.1-.2-2.9-.1-3.6z"/><path class="st0" d="m272.7 62.6-.5.3c.2 0 .3-.1.5-.3z"/><path class="st0" d="M161.4 266.3c.2-.2.5-.4.7-.6-.4.3-.6.5-.7.6z"/><path class="st0" d="M244 79.1v.6c.2-.4.2-.5 0-.6z"/><path class="st0" d="m47 254 .1-.6c-.1.2-.1.4-.1.6z"/><path class="st0" d="M152.8 182.4c.1.1.3.2.5.2.1 0 .1-.1.2-.1l-.7-.1z"/><path class="st0" d="M435.1 68.1s-.1-.1-.2-.1l-1 .8c.6-.3 1-.6 1.2-.7z"/><path class="st0" d="M227.8 146.7c0-.1.2-.2.2-.3-1.3.5-4.7 2.1-9 4.2v.7l8.8-4.6z"/><path class="stroke-3" d="M316 122.2s-.5.1-1.3.4c-.8.2-1.9.5-2.9.8-2.1.6-4.3 1.2-4.3 1.2 3.2-1.4 6.2-2.8 9.1-4 2.9-1.2 5.6-2.3 8.2-3.3 5.2-2 9.9-3.9 14.4-5.7 4.6-1.7 9.1-3.3 13.8-5.1 4.7-1.8 9.6-3.9 15.3-6l-1.3.5c1.7-.4 2.8-1.5 8.2-3.6 2.7-1.1 6.5-2.4 11.9-4 2.9-.9 6-1.9 9.7-3 3.7-1.1 7.8-2.3 12.5-3.7v.1c1.3-.5 1.2-.7 3.8-1.4l-6.6 1.7c3.7-1.7 6.8-3.5 11.8-5.6 1.1-.3 1.6-.2 1.8-.1 0 0 .8-.3 1.9-.8 1.2-.5 2.7-1.1 4.2-1.8 3.1-1.3 6.1-2.5 6.1-2.5l4.1-.8c3.6-2 1.3-2.8 11.7-6.1-2.1.3-.9-.4.6-1.2 1.5-.7 3.4-1.6 2.7-1.6.6-.1 1.8-.4 2.8-.6 1.5-.7 3.3-1.5 5.2-2.5 1.9-.9 3.9-1.9 5.8-2.9 3.8-2.1 7.2-4 8.4-5 0 0-1.5.6-3.9 1.5-1.2.5-2.6 1-4.1 1.6-1.5.6-3.2 1.3-4.9 1.8-3.4 1.1-7.1 2.3-10.3 3.3-3.2 1-6 1.7-7.7 2.1 8.5-3.2 2.1-1 .4-.7l-.4.5c-5.1 1.8-5.4 1.2-8 2 0 .1.1.1.2.1l.3-.2c.3 0 .2.2-.1.3.1.1-.1.3-1.4.9l.2-.2c-2.1.9-5.7 2.3-7.3 2.9l-.3-.5c-3.3 2.6-25.8 8.2-30.8 10-2.7.6-5.5 1.7-8.5 2.9-2.9 1.2-6.1 2.4-9.3 3.3-10.3 3.3-5.4.9-10.7 2.2-6.5 1.9 1.5.2-1 1.1 0 0-2 .5-4 .9-1 .2-2 .5-2.7.6-.7.2-1.2.3-1.2.3 4.4-1.7 1.9-1.1 1-1.1-6.6 2.4-17.4 5.3-19 7.2-2.3.7-4 1.2-5.3 1.6-1.3.4-2.3.7-3.2.9-1.6.5-2.6.7-4.5 1.4 1.3-.3 3.9-1.1 4-.9-3.7.9-1.6.8-.1.3-2.6 1.3-9.7 3.6-16.4 5.8-1.6.6-3.3 1.1-4.8 1.6s-2.9 1.1-4 1.5c-2.4.9-3.9 1.7-4.1 2.1l-.1-.2c-.9 1.4 1.5 1.5-2 3.6l-2.6.7-3.6 2c-2.6.8-1.5 0-1.6-.1-5.9 3-14.5 6.3-21.9 9.5l8.8-1c-6.4 2.2-18 6-18.9 7.4l-4.1.9c-13 4.2-8.2 4.7-13.3 6.5 0 0-1.6.5-3.3 1-1.6.5-3.3 1-3.3 1s1.5-.7 3-1.5c1.5-.7 3.1-1.4 3.1-1.4-6.3 2.4-8.9 3.4-14 5.1.4-.1.6-.2.7-.2l-.8.4c-.5.8-3.6 2.6-7.9 4.7-6.2 2.8-10.5 5.9-20.7 9.8l-2 2.1-7.5 3.1-.4-.7c3.5-1.8 8.6-4.4 14-7.2 5.4-2.7 10.9-5.7 15.5-7.9v-.4c-5.5 2.6-11.4 6.1-15.1 7.8-1.8.7-6.7 2.2-3.7.1l-3 2.4c-18 9.3-18.1 9.3-37.2 18.3l1.8-.5c-3.6 2.1-7.2 4.3-8.5 4.3-11.3 5.8-23.1 11.7-30.8 14.8l-1.1 1.7c-2.4 1.3-6.6 1.9-7.1 3.7l-4.8 3.2c-3.2 1.7-5 3.3-8.8 4.9-.2.1-.5.2-.7.3h.1c-7.5 3.9.5.7-8.1 5.1-3 1.1-2.3 2.9-6.4 5.3 0 0-.3.1-.7.2-.4.1-1 .3-1.6.5-1.2.4-2.3.8-2.3.8-1.9 1.1-3.3 2.1-4.6 3-1.2 1-2.3 1.9-3.4 3-2.3 2.1-4.8 4.6-9.5 9-1.2 1-2.3 1.8-3.2 2.4-.9.6-1.6 1.1-2.1 1.3-1 .4-1.3-.1-.2-2-1.5 2.6-1.8 3.2-2.3 3.9-.5.7-1.2 1.6-3.4 4.8-1.1.6-.7-.1 0-1.7-1.2 1.2-1.9 2.2-2.4 2.8-.5.7-.7 1.1-.9 1.5-.2.4-.3.8-.6 1.3-.3.6-.7 1.3-1.4 2.4v1.4c0 .5.1 1 .1 1.5 0 1-.1 1.9-.4 2.7l.6-.8.6-.8c-.6 1.3-1.1 2.7-1.7 4.1-.3.7-.5 1.5-.8 2.2-.1.4-.2.8-.4 1.2-.1.4-.3.9-.4 1.4 0 .2-.1.4-.1.5-.1.3-.3.8-.4 1.2-.1.4-.2.9-.3 1.3-.2.9-.3 1.9-.3 2.9 0 .5.1 1 .1 1.5s.1 1 .2 1.5.2 1 .4 1.5l.5 1.4-.6-.1s.1.1.2.4c.1.3.3.6.6 1s.6.8.9 1.3c.3.4.7.8 1.1 1.3.8.8 1.5 1.5 2.1 2 .6.5 1 .8 1 .8v.8s.6.4 1.4 1c.4.3.9.6 1.5.9.5.3 1.1.6 1.7.9 2.3 1.2 4.6 2.1 4.6 2.1l-1.2-.7c1.1.4 3.4 1.3 5.9 2.1 2.5.8 5.2 1.7 7.2 2.3l-.2.3c1.4.5 2.7.9 4.1 1.3.7.2 1.4.3 2 .5l1 .2c.4.1.7.1 1.2.2 2.7.4 5.3.6 8 .8 2.7.2 5.5.2 8.4.3h9.3s-.4.2-.9.4c-.4.2-.9.3-.9.3 4.6.7 1.3-1.1 6.7-.8l.3.9c2.4-.6 3.9-.7 5.3-.5.7.1 1.3.2 2 .3.7.1 1.4.2 2.3.2l-1.7-1s1.6-.1 3.1-.2c.8-.1 1.6-.1 2.2-.2.6 0 1-.1 1-.1 6.9-.7 4.5.7 3.5 1.5 0 0 .3-.1.7-.3.4-.1 1-.4 1.6-.6 1.1-.5 2.3-.9 2.3-.9l1.1.8c1.6-.9 2.5-1.2 3.7-1.3 1.2-.2 2.8-.4 5.7-1.7.6.2-.8.9 1.3.4 1.5-.8 3-1.6 4.6-2.5.8-.5 1.5-.9 2.3-1.4l1.2-.8 1.4-1-.6.3.3-.3-.4.2.6-.3-1.6 1.1-1.4.9c-.9.5-1.8 1.1-2.7 1.5l.2-1.6c.9-.6 1.7-1.1 2.5-1.5.9-.5 1.6-1 2.4-1.4-.2.1-.3.2-.5.3 1.3-.8 2.5-1.3 3.7-1.8l1.8-.9c.6-.4 1.1-.8 1.8-1.2l-1.2 1c-.3.3-.6.5-.8.7-.2.2-.4.3-.4.3.8-.5 1.5-1 2.1-1.4.6-.4 1.1-.8 1.6-1.1 1-.6 1.7-1 2.4-1.4 1.3-.7 2.4-1.2 4.1-2.3-1.2.5-3 1.4-.7-.5 1.7-1.3 1.3-.3 3-1.4-.2-1.1 3.5-4.6 7.3-7.3 0 .1.1.3-.1.6.8-.9 1.1-1.5 2.8-2.7l-.2 1.6 2.2-3.4c2.2-1.5 4.4-4.8 4.6-4l-.9 1.2s3.7-3.4 7.2-6.8c1.7-1.8 3.5-3.5 4.8-4.8 1.3-1.3 2.1-2.2 2.1-2.2l.8.4c.2-1.1 2.1-3 3.8-4.7 1.6-1.7 3-3.2 2.2-3.5.8-.6 1.7-1.6 2.7-2.7l1.5-1.8c.6-.7 1.1-1.4 1.6-2 .5-.7.9-1.3 1.3-1.9.3-.5.7-.9.9-1.2.5-.6.9-.7.9 0 3.7-5.4 6.3-9.7 8.8-14.4 1.3-2.3 2.6-4.7 4.2-7.3 1.6-2.6 3.3-5.5 5.5-8.8 1-1 2.2-2.7 3.6-4.7.6-.8 1.2-1.6 1.8-2.5.6-.8 1.3-1.6 1.9-2.4 1.4-1.4 2.9-2.8 4.5-3.7 1.6-.9 3.1-1.4 4.6-1.6.2 0 .5-.1.7-.1.2 0 .5 0 .7-.1.5-.1.9 0 1.4-.1.4 0 .9 0 1.2.1.2 0 .4 0 .5.1.1 0 .4.1.3 0 .1 0 .1.1.4.1.2 0 .3.1.4.1.4.1.6.1.9.2l.4.1h.4l.5.1c.3.1.7.1 1 .2.7.2 1.3.3 2 .4.6.2 1.3.4 1.8.6.6.2 1.2.4 1.7.7 2.3 1 4.3 2.4 6.2 4.1 3.7 3.5 6.8 8.4 8.9 15.2.3 2.6.7 5.6 1 8.6.1.8.2 1.5.2 2.3v.8l-.3.9c-.2.6-.5 1.3-.8 1.9-1.2 2.7-3.1 5.5-5.2 8-2.1 2.6-4.4 4.9-6.8 6.8 0 0-.5.7-.9 1.4l-1 1.4c-3.4 2.3-7.3 5.7-11.7 9.2-4.4 3.5-9.3 7.1-14.5 9.8-1.1.9-1.9 1.6-2.6 2.1-.3.2-.6.4-.8.6l-.1.1-.1.1c-.1.1.9-.4 1.3 0l-.6.3c-.1.1-.2.1-.3.2h-.1c-.1.1-.3.1-.9.3-1 .4-2 .8-2.9 1.2-1.8.7-3.3 1.1-3.3.5l.7-.4c0-.3-.5-.2-1.4.1-.9.3-2.1.9-3.4 1.3-2.7 1.1-5.9 2-7.7 2 0 0 .1 0 .3.1.2.1.5.1.7.2.5.1 1.1.3 1.1.3s-.4.1-.9.2-1.3.3-2 .4c-.7.1-1.5.3-2 .3-.5.1-.9.1-.9.1l.8-.2c.4-.1.8-.3.8-.3-1.5.5-3 .8-4.5 1.1-1.5.3-2.9.4-4.2.6-2.7.2-5.3.3-7.7 0-4.8-.5-9.1-1.7-12.9-3.7-1.9-.9-3.7-2-5.4-3.3-1.8-1.2-3.4-2.6-5.1-4.2-1.6-1.6-3.3-3.3-4.8-5.2-.4-.5-.8-1-1.1-1.5-.2-.2-.3-.5-.5-.7-.1-.2-.3-.4-.4-.7l-.1-.1-.2-.4v-.1l-.1-.1-.3-.5-.6-.9c-.4-.6-.8-1.3-1.2-1.9 1.2 1.2.6.2-.3-1.2-.5-.7-.8-1.5-1.1-2.2-.2-.7-.3-1.3-.1-1.5-.2-1.6-.6-2.9-1-4.3s-.9-2.6-1.5-3.9c-.9-2.5-2.2-4.9-2.8-7.4-.1 0-.1 0-.3-.3 0 0-.1-.6-.2-1.4-.1-.4-.1-.9-.2-1.4-.1-.5-.1-1.1-.2-1.6-.1-1.1-.2-2.2-.3-3.1 0-.4-.1-.8-.1-1v-.4c.5 1.3.7 1.5.6 1.3-.1-.3-.3-1.1-.5-1.9-.5-1.6-1-3.4-.1-.9-.1-5.9.1-12.2.9-18.8.2-1.6.4-3.3.7-4.9.1-.8.3-1.6.4-2.4.2-.8.3-1.7.5-2.1.5-1.7 1-3.3 1.5-5 .5-1.7 1.1-3.3 1.7-5 2.4-6.7 5.3-13.3 8.6-19.7 3.3-6.4 7.1-12.5 11.1-18.2l-1 .8c4-5.9 8.9-13.2 12.9-17 3.9-3.7 6.9-9.7 8.3-11.3 3.5-4.9 8.3-7.8 6.5-6 4.3-4.7 7.6-9.9 14.6-15.4 1.6-.5 5.9-4.7 10.1-8.5 4.2-3.8 8.4-7.2 8.9-6.6v-.2c2.4-1.4 4.8-2.9 7.1-4.5l1.7-1.2 1.7-1.1c1.1-.8 2.3-1.5 3.4-2.3 1.1-.8 2.3-1.5 3.5-2.2 1.2-.7 2.4-1.4 3.7-2.1 2.5-1.2 5.1-2.5 7.9-3.3 0 0-.2.2-.5.4l.9-.6c.5-.4 1.3-.9 2.3-1.4 1.9-1.1 4.6-2.6 7.3-3.6 2.7-1.1 5.7-1.7 7.8-1.6 1.1 0 2 .2 2.5.4.3.1.5.2.7.3l.2.1s0-.1-.1-.4c-.1-.2-.2-.5-.4-.9-.3-.8-1-1.7-1.9-2.6-.2-.2-.4-.5-.6-.7-.2-.2-.4-.4-.7-.6-.4-.4-.9-.7-1.3-1-.7-.5-1.3-.9-1.3-.9s-.4-.1-1.1-.2c-.7-.1-1.7-.2-2.9-.3-1.2-.1-2.6-.1-4.1-.1-1.5.1-3 .2-4.6.3-1.5.2-3.1.5-4.5.7-1.4.2-2.7.6-3.8.8-1.1.3-2.1.5-2.7.6-.6.2-1 .3-1 .3s-.9.5-2.5 1.2c-.8.4-1.8.9-2.8 1.5-1 .6-2.2 1.3-3.5 2-2.6 1.4-5.4 3.3-8.5 5.3-3 2-6 4.2-9.2 6.5-6.3 4.6-12.1 9.5-16.4 13.3-4.3 3.8-7.1 6.4-7.1 6.4s-2.3 2-5.7 5c-3.4 3.1-7.9 7.2-12.2 11.5-4.3 4.3-8.5 8.9-11.5 12.3-1.5 1.7-2.7 3.2-3.6 4.2-.9 1-1.4 1.6-1.4 1.6s-1.1 1.5-3.1 4.1c-1 1.3-2.1 3-3.4 4.8-1.3 1.9-2.7 4-4.3 6.4-3 4.8-6.4 10.4-9.7 16.7-3.2 6.3-6.4 13.3-9 20.4-.6 1.8-1.3 3.6-1.9 5.4-.6 1.8-1.1 3.6-1.6 5.4l-.4 1.4c-.1.2-.2.9-.3 1.1l-.2.8c-.2 1-.4 1.9-.5 2.9-.1.9-.3 1.9-.4 2.8l-.3 2.7c-.8 7.3-.9 14-.7 19.9.2 2.9.3 5.6.7 8 .1 1.2.3 2.3.4 3.3.1 1 .3 2 .5 2.8.3 1.7.5 3 .7 3.9.2.9.3 1.4.3 1.4l1.6 4.2c.4 1.1.9 2.1 1.3 2.9.4.8.6 1.3.6 1.3.6 3 1.7 6.1 2.9 9.2.6 1.5 1.4 3.1 2.1 4.6.4.8.7 1.5 1.1 2.3v.1c.2.4-.3-.5-.2-.4l.1.1.2.5.4.7c.2.4.5.9.7 1.3 2 3.3 4.3 6.3 7 9s5.7 5.2 9 7.3c6.6 4.2 14.1 6.9 21.6 8.1 7.5 1.2 14.8 1 21.6.3l.4-1.1c3.7-.7 5.5-1 6.5-1.1 1-.1 1.4 0 2.4-.1 1.6-.4 3.2-.9 4.8-1.4.8-.3 1.6-.5 2.3-.8l2.3-.9c1.5-.6 3.1-1.2 4.5-1.8l2.2-1 1.2-.5.9-.4.9-.6 2.1-1.4 2-1.3 3.9-2.7c2.6-1.8 5.1-3.7 7.7-5.6 5-3.8 10-7.8 14.7-12.1 2.4-2.2 4.7-4.4 7-6.8 2.3-2.4 4.5-4.8 6.5-7.6 2.1-2.7 4-5.6 5.7-9 .4-.8.8-1.7 1.2-2.6l.5-1.4c.2-.6.4-1.3.6-1.9.2-.7.4-1.3.5-2 0-.7 0-1.4-.1-2l-.1-1-.1-.7-.1-1.3c-.8-6.7-2.3-13.3-5.1-19.6-2.7-6.3-6.8-12.4-12.4-17.2-2.8-2.3-6-4.3-9.3-5.7l-1.2-.5-1.3-.5c-.8-.3-1.7-.6-2.6-.8-.9-.2-1.7-.5-2.6-.7l-2.3-.4h-.2l-.6-.2-.5-.1c-.3-.1-.6-.2-.9-.2l-1.8-.3c-1.2-.2-2.4-.2-3.6-.2-1.2 0-2.4 0-3.6.2l-1.8.2-1.8.4c-4.7 1.1-9 3.5-12.5 6.4-.9.7-1.7 1.5-2.5 2.3-.8.8-1.6 1.6-2.2 2.4l-2 2.5c-.6.9-1.1 1.7-1.7 2.6-1.2 1.9-1.9 3.1-2.8 4.6-.9 1.4-1.8 2.9-2.6 4.3-.8 1.1-2 2.8-3.3 4.9-1.3 2-2.8 4.3-4.2 6.6-1.5 2.3-2.9 4.5-4.1 6.3-1.3 1.8-2.4 3.3-3.1 4-1.1 2-2.3 3.9-3.5 5.9l-.9 1.5-.2.3-.5.6-2.1 2.7c-2.9 3.6-6 7.2-9.1 10.7-6.3 7-13.1 13.6-19.9 19.4l.4-.5-3.2 2.8c-.8.7-1.6 1.4-2.2 1.9-.6.5-1 .8-1 .8-.3.2-.4.1-.3-.1-3.8 3.7-9.6 7.9-15.6 10.8l-.6.3-.1.1-.3.2-.8.4c-.5.2-1.1.5-1.7.7-1.2.4-2.4.9-3.6 1.2-2.4.8-5 1.3-7.3 1.9l.6-.3c-7.2 1.8-14.7 2.6-22.2 2.9-7.5.3-15.1-.2-22.6-.9-1.9-.2-3.8-.4-5.6-.7-.1 0-.3 0-.5-.1l-.6-.1-1.3-.2-2.7-.6c-3.5-.8-7-1.8-10.2-3-1.6-.6-3.1-1.3-4.5-2-1.3-.7-2.5-1.5-3.3-2.2-.8-.7-1.2-1.3-1.1-1.2-.1 0-.2.1-.3.1h-.2.5v-.4l.7-2.2v-.1l.1-.2.2-.5c.1-.4.3-.8.4-1.2.1-.4.4-.8.5-1.2.2-.4.4-.8.6-1.3.9-1.7 1.9-3.4 3-5.1 2.2-3.4 5-6.5 7.8-9.6 5.9-6.1 12.6-11.7 19.9-16.7 1.8-1.3 3.7-2.4 5.5-3.7 1.9-1.2 3.7-2.4 5.7-3.5s3.9-2.2 5.9-3.4c2-1.1 4-2.3 6.1-3.4 8.1-4.5 16.3-8.9 24.7-13.2 29.4-14.2 62.2-33.8 96.5-48.9 3.3-1.1 21.9-10 40.7-18.6 4.7-2.2 9.4-4.3 13.8-6.3s8.7-3.9 12.4-5.5c7.9-2.1 13.4-4.6 14.9-5.3z"/><path class="st0" d="m420.2 81.6-.3.1c.1.4.5.1.3-.1z"/><path class="st0" d="M269.5 128.5c.2-.1.3-.1.5-.2l-2 .2h1.5z"/><path class="st0" d="M362.9 89.9c-4.3 1.3-4.5 1.6-3.8 1.5 1.5-.6 2.8-1.1 3.8-1.5z"/><path class="st0" d="M454.3 66.7c2.2-1 1.3-.8-.1-.5-2.2 1-3.8 1.8-3.8 1.8 1.3-.5 2.6-.8 3.9-1.3z"/><path class="st0" d="m443.1 65.3.6-.6c-1.3.6-1.2.7-.6.6z"/></svg>